<svg width="20" height="20" viewBox="0 0 20 20" fill="none" xmlns="http://www.w3.org/2000/svg">
<path d="M10 14.1666C9.55801 14.1666 9.13409 13.991 8.82153 13.6784C8.50897 13.3659 8.33337 12.9419 8.33337 12.4999C8.33337 11.5749 9.07504 10.8333 10 10.8333C10.4421 10.8333 10.866 11.0088 11.1786 11.3214C11.4911 11.634 11.6667 12.0579 11.6667 12.4999C11.6667 12.9419 11.4911 13.3659 11.1786 13.6784C10.866 13.991 10.4421 14.1666 10 14.1666ZM15 16.6666V8.33325H5.00004V16.6666H15ZM15 6.66658C15.4421 6.66658 15.866 6.84218 16.1786 7.15474C16.4911 7.4673 16.6667 7.89122 16.6667 8.33325V16.6666C16.6667 17.1086 16.4911 17.5325 16.1786 17.8451C15.866 18.1577 15.4421 18.3333 15 18.3333H5.00004C4.55801 18.3333 4.13409 18.1577 3.82153 17.8451C3.50897 17.5325 3.33337 17.1086 3.33337 16.6666V8.33325C3.33337 7.40825 4.07504 6.66658 5.00004 6.66658H5.83337V4.99992C5.83337 3.89485 6.27236 2.83504 7.05376 2.05364C7.83516 1.27224 8.89497 0.833252 10 0.833252C10.5472 0.833252 11.089 0.941026 11.5946 1.15042C12.1001 1.35982 12.5594 1.66673 12.9463 2.05364C13.3332 2.44055 13.6401 2.89988 13.8495 3.4054C14.0589 3.91093 14.1667 4.45274 14.1667 4.99992V6.66658H15ZM10 2.49992C9.337 2.49992 8.70111 2.76331 8.23227 3.23215C7.76343 3.70099 7.50004 4.33688 7.50004 4.99992V6.66658H12.5V4.99992C12.5 4.33688 12.2366 3.70099 11.7678 3.23215C11.299 2.76331 10.6631 2.49992 10 2.49992Z" fill="#BCBCBC"/>
</svg>
